<?xml version="1.0" encoding="utf-8"?>
<svg viewBox="128.904 228 242.193 38.495" xmlns="www.w3.org/2000/svg">
  <defs>
    <linearGradient data-v-fde0c5aa="" gradientTransform="rotate(25)" id="923b9cb7-d2db-4099-adb5-5cfea3410f20" x1="0%" y1="0%" x2="100%" y2="0%">
      <stop data-v-fde0c5aa="" offset="0" stop-color="#E90DCA" stop-opacity="1"/>
      <stop data-v-fde0c5aa="" offset="1" stop-color="#1536F1" stop-opacity="1"/>
    </linearGradient>
  </defs>
  <rect data-v-fde0c5aa="" fill="transparent" x="128.904" y="228" width="242.193" height="38.495" class="logo-background-square" style=""/>
  <g data-v-fde0c5aa="" id="1325f6b1-7c70-4d35-b3ba-c5406fee6b01" fill="#000000" transform="matrix(2.374431, 0, 0, 2.374431, 193.867096, 226.071472)">
    <path d="M6.08 13.72L5.54 12.53L5.54 12.53Q4.90 11.07 4.66 10.60L4.66 10.60L4.66 10.60Q4.42 10.12 4.24 9.99L4.24 9.99L4.24 9.99Q4.05 9.86 3.67 9.86L3.67 9.86L3.19 9.86L3.19 12.91L4.41 13.20L4.41 13.72L0.55 13.72L0.55 13.20L1.81 12.91L1.81 5.96L0.53 5.67L0.53 5.15L4.12 5.15L4.12 5.15Q5.66 5.15 6.41 5.75L6.41 5.75L6.41 5.75Q7.15 6.36 7.15 7.29L7.15 7.29L7.15 7.29Q7.15 8.09 6.66 8.72L6.66 8.72L6.66 8.72Q6.17 9.35 5.12 9.62L5.12 9.62L5.12 9.62Q5.47 9.73 5.67 9.88L5.67 9.88L5.67 9.88Q5.87 10.04 6.02 10.32L6.02 10.32L6.02 10.32Q6.17 10.60 6.48 11.28L6.48 11.28L6.48 11.28Q7.07 12.54 7.25 12.91L7.25 12.91L8.29 13.20L8.29 13.72L6.08 13.72ZM3.96 9.24L3.96 9.24Q4.79 9.24 5.24 8.74L5.24 8.74L5.24 8.74Q5.68 8.25 5.68 7.42L5.68 7.42L5.68 7.42Q5.68 6.66 5.25 6.24L5.25 6.24L5.25 6.24Q4.82 5.82 4.00 5.82L4.00 5.82L4.00 5.82Q3.64 5.82 3.19 5.95L3.19 5.95L3.19 9.24L3.96 9.24ZM11.23 7.56L11.23 7.56Q10.57 7.56 9.95 7.76L9.95 7.76L9.63 8.95L9.09 8.95L8.85 7.22L8.85 7.22Q10.25 6.71 11.55 6.71L11.55 6.71L11.55 6.71Q12.61 6.71 13.17 7.06L13.17 7.06L13.17 7.06Q13.73 7.42 13.73 8.30L13.73 8.30L13.73 12.80L14.94 13.09L14.94 13.55L14.94 13.55Q14.15 13.78 13.44 13.78L13.44 13.78L13.44 13.78Q13.05 13.78 12.75 13.58L12.75 13.58L12.75 13.58Q12.46 13.38 12.38 13.02L12.38 13.02L12.38 13.02Q11.80 13.44 11.24 13.66L11.24 13.66L11.24 13.66Q10.68 13.87 10.07 13.87L10.07 13.87L10.07 13.87Q9.34 13.87 8.93 13.37L8.93 13.37L8.93 13.37Q8.51 12.87 8.51 12.15L8.51 12.15L8.51 12.15Q8.51 11.48 8.90 10.92L8.90 10.92L8.90 10.92Q9.28 10.36 10.29 10.18L10.29 10.18L12.35 9.80L12.35 8.68L12.35 8.68Q12.35 8.11 12.10 7.83L12.10 7.83L12.10 7.83Q11.86 7.56 11.23 7.56L11.23 7.56ZM11.07 10.70L11.07 10.70Q9.93 10.92 9.93 11.94L9.93 11.94L9.93 11.94Q9.93 12.92 10.86 12.92L10.86 12.92L10.86 12.92Q11.47 12.92 12.35 12.45L12.35 12.45L12.35 10.47L11.07 10.70ZM25.61 7.35L24.72 7.63L22.71 13.78L21.83 13.92L20.33 9.52L18.90 13.78L18.02 13.92L15.85 7.62L15.08 7.35L15.08 6.85L18.10 6.85L18.10 7.36L17.28 7.62L18.68 12.00L20.12 7.49L21 7.36L22.50 12.00L23.80 7.63L22.69 7.36L22.69 6.85L25.61 6.85L25.61 7.35ZM27.73 11.59L27.29 12.92L28.28 13.20L28.28 13.72L25.37 13.72L25.37 13.22L26.38 12.92L28.99 5.15L29.89 4.97L32.69 12.92L33.70 13.20L33.70 13.72L30.39 13.72L30.39 13.20L31.25 12.95L30.77 11.59L27.73 11.59ZM30.55 10.91L29.22 7.13L27.94 10.91L30.55 10.91ZM38.02 7.70L38.02 7.70Q37.31 7.70 36.69 7.95L36.69 7.95L36.69 12.91L38.29 13.22L38.29 13.72L34.10 13.72L34.10 13.23L35.31 12.89L35.31 7.83L34.10 7.67L34.10 7.24L36.13 6.71L36.67 6.71L36.67 7.35L36.67 7.35Q37.14 7.04 37.72 6.86L37.72 6.86L37.72 6.86Q38.30 6.68 38.81 6.68L38.81 6.68L38.81 6.68Q39.07 6.68 39.19 6.69L39.19 6.69L38.95 8.86L38.32 8.86L38.02 7.70ZM43.99 13.55L43.99 13.55Q43.58 13.66 42.90 13.76L42.90 13.76L42.90 13.76Q42.22 13.85 41.86 13.85L41.86 13.85L41.86 13.85Q40.73 13.85 40.73 12.71L40.73 12.71L40.73 7.64L39.70 7.64L39.70 7.10L40.85 6.69L41.47 5.29L42.10 5.29L42.10 6.85L44.18 6.85L44.18 7.76L42.10 7.64L42.10 12.80L43.99 13.08L43.99 13.55ZM46.63 5.66L46.63 5.66Q46.24 5.66 45.96 5.40L45.96 5.40L45.96 5.40Q45.68 5.14 45.68 4.76L45.68 4.76L45.68 4.76Q45.68 4.38 45.97 4.10L45.97 4.10L45.97 4.10Q46.26 3.82 46.63 3.82L46.63 3.82L46.63 3.82Q47.00 3.82 47.28 4.10L47.28 4.10L47.28 4.10Q47.57 4.38 47.57 4.76L47.57 4.76L47.57 4.76Q47.57 5.14 47.29 5.40L47.29 5.40L47.29 5.40Q47.01 5.66 46.63 5.66L46.63 5.66ZM48.54 13.72L44.74 13.72L44.74 13.19L45.95 12.91L45.95 7.81L44.74 7.67L44.74 7.24L46.90 6.71L47.33 6.71L47.33 12.91L48.54 13.19L48.54 13.72ZM52.37 13.86L52.37 13.86Q50.81 13.86 50.05 12.87L50.05 12.87L50.05 12.87Q49.29 11.89 49.29 10.32L49.29 10.32L49.29 10.32Q49.29 8.69 50.04 7.70L50.04 7.70L50.04 7.70Q50.79 6.71 52.37 6.71L52.37 6.71L52.37 6.71Q53.03 6.71 53.56 6.81L53.56 6.81L53.56 6.81Q54.08 6.92 54.68 7.15L54.68 7.15L54.42 8.95L53.86 8.95L53.54 7.67L53.54 7.67Q52.99 7.49 52.46 7.49L52.46 7.49L52.46 7.49Q51.52 7.49 51.16 8.20L51.16 8.20L51.16 8.20Q50.81 8.92 50.81 10.28L50.81 10.28L50.81 10.28Q50.81 11.68 51.19 12.35L51.19 12.35L51.19 12.35Q51.58 13.02 52.54 13.02L52.54 13.02L52.54 13.02Q53.59 13.02 54.63 12.70L54.63 12.70L54.71 13.20L54.71 13.20Q54.14 13.52 53.58 13.69L53.58 13.69L53.58 13.69Q53.02 13.86 52.37 13.86L52.37 13.86ZM59.01 13.72L55.20 13.72L55.20 13.19L56.42 12.91L56.42 4.63L55.20 4.49L55.20 4.06L57.34 3.53L57.81 3.53L57.81 12.91L59.01 13.19L59.01 13.72ZM62.94 13.87L62.94 13.87Q61.29 13.87 60.51 12.94L60.51 12.94L60.51 12.94Q59.72 12.01 59.72 10.32L59.72 10.32L59.72 10.32Q59.72 8.51 60.53 7.61L60.53 7.61L60.53 7.61Q61.33 6.71 62.79 6.71L62.79 6.71L62.79 6.71Q64.18 6.71 64.83 7.35L64.83 7.35L64.83 7.35Q65.48 7.99 65.48 9.37L65.48 9.37L65.48 9.37Q65.48 9.73 65.44 10.14L65.44 10.14L61.24 10.14L61.24 10.54L61.24 10.54Q61.24 11.77 61.76 12.40L61.76 12.40L61.76 12.40Q62.29 13.03 63.25 13.03L63.25 13.03L63.25 13.03Q64.15 13.03 65.30 12.71L65.30 12.71L65.39 13.20L65.39 13.20Q64.83 13.55 64.26 13.71L64.26 13.71L64.26 13.71Q63.69 13.87 62.94 13.87L62.94 13.87ZM61.26 9.56L64.02 9.41L64.02 9.10L64.02 9.10Q64.02 8.29 63.76 7.89L63.76 7.89L63.76 7.89Q63.49 7.49 62.87 7.49L62.87 7.49L62.87 7.49Q62.03 7.49 61.68 7.97L61.68 7.97L61.68 7.97Q61.32 8.46 61.26 9.56L61.26 9.56ZM69.05 7.49L69.05 7.49Q68.42 7.49 68.07 7.74L68.07 7.74L68.07 7.74Q67.72 7.98 67.72 8.41L67.72 8.41L67.72 8.41Q67.72 8.82 67.91 9.04L67.91 9.04L67.91 9.04Q68.11 9.25 68.61 9.44L68.61 9.44L69.80 9.84L69.80 9.84Q70.66 10.14 70.99 10.56L70.99 10.56L70.99 10.56Q71.32 10.98 71.32 11.72L71.32 11.72L71.32 11.72Q71.32 12.71 70.62 13.29L70.62 13.29L70.62 13.29Q69.93 13.86 68.63 13.86L68.63 13.86L68.63 13.86Q68.12 13.86 67.53 13.76L67.53 13.76L67.53 13.76Q66.93 13.66 66.47 13.50L66.47 13.50L66.67 11.77L67.21 11.77L67.51 12.94L67.51 12.94Q68.07 13.10 68.66 13.10L68.66 13.10L68.66 13.10Q70.10 13.10 70.10 11.97L70.10 11.97L70.10 11.97Q70.10 11.63 69.87 11.42L69.87 11.42L69.87 11.42Q69.65 11.20 69.05 10.99L69.05 10.99L67.97 10.63L67.97 10.63Q67.23 10.35 66.89 9.91L66.89 9.91L66.89 9.91Q66.56 9.48 66.56 8.76L66.56 8.76L66.56 8.76Q66.56 7.78 67.19 7.25L67.19 7.25L67.19 7.25Q67.82 6.71 69.08 6.71L69.08 6.71L69.08 6.71Q70.07 6.71 71.05 7.14L71.05 7.14L70.84 8.72L70.31 8.72L70.01 7.70L70.01 7.70Q69.83 7.62 69.56 7.55L69.56 7.55L69.56 7.55Q69.29 7.49 69.05 7.49L69.05 7.49Z"/>
  </g>
  <g data-v-fde0c5aa="" id="5353756e-643c-4f8d-b310-3d26e85ab6fc" stroke="none" fill="url(#923b9cb7-d2db-4099-adb5-5cfea3410f20)" transform="matrix(0.432378, 0, 0, 0.432378, 141.049622, 225.259003)">
    <path d="M89.08 86.666H52.96V27.025h36.12v59.64zM22.5 13.379c16.6-2.848 23.285 8.744 24.54 11.325V80.467c-3.979-3.96-10.242-7.897-19.442-7.897-1.605 0-3.31.124-5.098.384V13.38zm29.294 7.726c-2.824-4.95-12.385-17.927-32.94-13.013a2.952 2.952 0 0 0-2.274 2.877v10.136H7.96A2.957 2.957 0 0 0 5 24.065v65.561a2.961 2.961 0 0 0 2.96 2.96h84.08a2.961 2.961 0 0 0 2.96-2.96V24.065c0-1.64-1.326-2.96-2.96-2.96H51.794z"/>
  </g>
</svg>