<svg version="1.2" xmlns="http://www.w3.org/2000/svg" viewBox="0 0 250 43" width="250" height="43">
	<title>default-2-svg</title>
	<defs>
		<linearGradient id="g1" x1="14" y1="3.5" x2="1528.3" y2="3.5" gradientUnits="userSpaceOnUse">
			<stop offset="0" stop-color="#e90dca"/>
			<stop offset="1" stop-color="#1536f1"/>
		</linearGradient>
	</defs>
	<style>
		.s0 { fill: #000000 } 
		.s1 { fill: url(#g1) } 
	</style>
	<path id="Layer" class="s0" d="m-26-128h300v300h-300z"/>
	<g id="1325f6b1-7c70-4d35-b3ba-c5406fee6b01">
		<path id="Layer" fill-rule="evenodd" class="s0" d="m79.1 33.9l-1.3-2.9q-1.5-3.4-2.1-4.5-0.5-1.2-1-1.5-0.4-0.3-1.3-0.3h-1.2v7.2l2.9 0.7v1.3h-9.1v-1.3l3-0.7v-16.5l-3.1-0.7v-1.2h8.5q3.7 0 5.5 1.4 1.7 1.5 1.7 3.7 0 1.9-1.1 3.4-1.2 1.5-3.7 2.1 0.8 0.3 1.3 0.6 0.5 0.4 0.8 1.1 0.4 0.7 1.1 2.3 1.4 3 1.9 3.8l2.4 0.7v1.3zm-5-10.7q2 0 3-1.2 1.1-1.1 1.1-3.1 0-1.8-1-2.8-1.1-1-3-1-0.9 0-1.9 0.3v7.8zm17.2-4q-1.5 0-3 0.5l-0.8 2.8h-1.2l-0.6-4.1q3.3-1.2 6.4-1.2 2.5 0 3.8 0.8 1.4 0.9 1.4 3v10.7l2.8 0.7v1.1q-1.8 0.5-3.5 0.5-0.9 0-1.7-0.5-0.6-0.4-0.8-1.3-1.4 1-2.7 1.5-1.4 0.5-2.8 0.5-1.7 0-2.7-1.2-1-1.2-1-2.9 0-1.6 0.9-2.9 0.9-1.3 3.3-1.7l4.9-0.9v-2.7q0-1.4-0.6-2-0.6-0.7-2.1-0.7zm-0.3 7.5q-2.7 0.5-2.7 2.9 0 2.4 2.2 2.4 1.4 0 3.5-1.2v-4.7zm34.5-7.9l-2.1 0.7-4.8 14.6-2.1 0.3-3.5-10.5-3.4 10.2-2.1 0.3-5.2-15-1.8-0.6v-1.2h7.2v1.2l-2 0.6 3.4 10.4 3.4-10.7 2.1-0.3 3.5 11 3.1-10.3-2.6-0.7v-1.2h6.9zm5.1 10.1l-1.1 3.1 2.4 0.7v1.2h-6.9v-1.2l2.4-0.7 6.1-18.4 2.2-0.4 6.6 18.8 2.4 0.7v1.2h-7.8v-1.2l2-0.6-1.1-3.2zm6.7-1.6l-3.2-9-3 9zm17.7-7.7q-1.7 0-3.1 0.6v11.8l3.8 0.7v1.2h-10v-1.1l2.9-0.8v-12.1l-2.9-0.3v-1.1l4.8-1.2h1.3v1.5q1.1-0.7 2.5-1.2 1.4-0.4 2.6-0.4 0.6 0 0.9 0l-0.6 5.2h-1.5zm14.2 13.9q-1 0.2-2.6 0.5-1.6 0.2-2.5 0.2-2.6 0-2.6-2.7v-12.1h-2.5v-1.2l2.7-1 1.5-3.3h1.5v3.7h4.9v2.1l-4.9-0.3v12.3l4.5 0.7zm6.3-18.8q-1 0-1.6-0.6-0.7-0.6-0.7-1.5 0-0.9 0.7-1.6 0.7-0.6 1.6-0.6 0.8 0 1.5 0.6 0.7 0.7 0.7 1.6 0 0.9-0.7 1.5-0.6 0.6-1.5 0.6zm4.5 19.2h-9v-1.3l2.9-0.7v-12.1l-2.9-0.3v-1l5.1-1.3h1v14.7l2.9 0.7zm9.1 0.3q-3.7 0-5.5-2.3-1.8-2.3-1.8-6.1 0-3.8 1.8-6.2 1.7-2.3 5.5-2.3 1.6 0 2.8 0.2 1.3 0.3 2.7 0.8l-0.6 4.3h-1.4l-0.7-3.1q-1.3-0.4-2.6-0.4-2.2 0-3.1 1.7-0.8 1.7-0.8 4.9 0 3.4 0.9 5 0.9 1.5 3.2 1.5 2.5 0 5-0.7l0.2 1.2q-1.4 0.7-2.7 1.1-1.4 0.4-2.9 0.4zm15.8-0.3h-9.1v-1.3l2.9-0.6v-19.7l-2.9-0.3v-1l5.1-1.3h1.1v22.3l2.9 0.6zm9.3 0.4q-3.9 0-5.8-2.2-1.9-2.2-1.9-6.2 0-4.3 2-6.5 1.9-2.1 5.3-2.1 3.3 0 4.9 1.5 1.5 1.5 1.5 4.8 0 0.9-0.1 1.8h-9.9v1q0 2.9 1.2 4.4 1.3 1.5 3.5 1.5 2.2 0 4.9-0.7l0.2 1.1q-1.3 0.8-2.7 1.2-1.3 0.4-3.1 0.4zm-4-10.2l6.6-0.4v-0.7q0-1.9-0.7-2.9-0.6-0.9-2.1-0.9-2 0-2.8 1.1-0.9 1.2-1 3.8zm18.5-4.9q-1.5 0-2.3 0.5-0.9 0.6-0.9 1.6 0 1 0.5 1.5 0.5 0.5 1.7 1l2.8 0.9q2 0.7 2.8 1.7 0.8 1 0.8 2.8 0 2.4-1.7 3.7-1.6 1.4-4.7 1.4-1.2 0-2.6-0.3-1.4-0.2-2.5-0.6l0.5-4.1h1.2l0.7 2.8q1.4 0.4 2.8 0.4 3.4 0 3.4-2.7 0-0.8-0.6-1.3-0.5-0.5-1.9-1l-2.6-0.9q-1.7-0.7-2.5-1.7-0.8-1-0.8-2.7 0-2.4 1.5-3.6 1.5-1.3 4.5-1.3 2.3 0 4.7 1l-0.5 3.8h-1.3l-0.7-2.4q-0.4-0.2-1.1-0.4-0.6-0.1-1.2-0.1z"/>
	</g>
	<g id="5353756e-643c-4f8d-b310-3d26e85ab6fc">
		<path id="Layer" fill-rule="evenodd" class="s1" d="m51.6 9.6c0.7 0 1.3 0.6 1.3 1.3v28.3q0 0.3-0.1 0.5-0.1 0.2-0.3 0.4-0.1 0.2-0.4 0.3-0.2 0.1-0.5 0.1h-36.3q-0.3 0-0.5-0.1-0.2-0.1-0.4-0.3-0.2-0.2-0.3-0.4-0.1-0.2-0.1-0.5v-28.3q0-0.3 0.1-0.5 0.1-0.2 0.3-0.4 0.2-0.2 0.4-0.3 0.2-0.1 0.5-0.1h3.7v-4.4q0-0.2 0.1-0.4 0-0.2 0.2-0.4 0.1-0.1 0.3-0.3 0.2-0.1 0.4-0.1c8.9-2.2 13 3.5 14.2 5.6zm-30 22.4q1.1-0.2 2.2-0.2c3.9 0 6.7 1.8 8.4 3.5v-24.1c-0.6-1.2-3.5-6.2-10.6-4.9 0 0 0 25.7 0 25.7zm28.8-19.8h-15.7v25.7h15.7c0 0 0-25.7 0-25.7z"/>
	</g>
</svg>